<?xml version="1.0" standalone="no"?>
<!DOCTYPE svg PUBLIC "-//W3C//DTD SVG 20010904//EN"
 "http://www.w3.org/TR/2001/REC-SVG-20010904/DTD/svg10.dtd">
<svg version="1.0" xmlns="http://www.w3.org/2000/svg"
 width="16.000000pt" height="16.000000pt" viewBox="0 0 16.000000 16.000000"
 preserveAspectRatio="xMidYMid meet">
<metadata>
Created by potrace 1.11, written by Peter Selinger 2001-2013
</metadata>
<g transform="translate(0.000000,16.000000) scale(0.003125,-0.003125)"
fill="#000000" stroke="none">
<path d="M2510 5106 c-157 -35 -243 -140 -253 -309 -2 -31 -6 -59 -9 -62 -3
-3 -61 -17 -128 -31 -425 -86 -794 -286 -1106 -598 -345 -346 -547 -748 -621
-1236 -23 -157 -24 -463 0 -618 115 -740 561 -1346 1225 -1665 186 -89 389
-151 625 -191 34 -6 37 -10 37 -39 0 -18 -5 -48 -10 -67 -9 -30 -7 -37 10 -50
20 -15 20 -17 -26 -109 -48 -100 -48 -110 6 -112 229 -9 219 -10 238 19 9 15
22 33 29 40 13 14 17 30 14 68 -2 18 7 24 51 35 53 14 97 14 110 0 4 -4 9 -27
11 -52 2 -40 14 -65 57 -116 10 -12 220 -11 259 2 27 8 19 36 -44 167 -12 26
-11 28 21 48 33 19 34 22 28 57 -4 21 -8 60 -8 86 l-1 49 90 23 c766 200 1371
809 1564 1575 50 198 65 323 65 540 0 348 -62 631 -208 944 -174 372 -502 730
-865 944 -171 100 -460 217 -589 238 l-40 6 0 67 c-3 180 -75 294 -216 337
-67 20 -245 26 -316 10z"/>
</g>
</svg>
